<?xml version="1.0" standalone="no"?>
<!DOCTYPE svg PUBLIC "-//W3C//DTD SVG 20010904//EN"
 "http://www.w3.org/TR/2001/REC-SVG-20010904/DTD/svg10.dtd">
<svg version="1.0" xmlns="http://www.w3.org/2000/svg"
 width="512.000000pt" height="512.000000pt" viewBox="0 0 512.000000 512.000000"
 preserveAspectRatio="xMidYMid meet">

<g transform="translate(0.000000,512.000000) scale(0.100000,-0.100000)"
fill="#000000" stroke="none">
<path d="M2367 5098 c-22 -56 -390 -945 -394 -952 -3 -4 -77 163 -163 372 -87
209 -162 387 -167 396 -7 12 -39 2 -193 -62 -102 -41 -186 -77 -188 -77 -1 -1
88 -220 199 -486 111 -266 203 -492 206 -501 4 -13 -9 -21 -65 -37 -135 -41
-297 -127 -410 -218 -24 -20 -45 -33 -47 -31 -3 2 -102 227 -221 499 -118 272
-220 498 -224 503 -11 11 -370 -144 -370 -159 0 -6 173 -407 385 -891 212
-483 386 -886 387 -894 0 -8 -192 -454 -427 -990 -235 -536 -429 -982 -432
-991 -3 -12 135 -74 644 -289 356 -150 655 -275 663 -277 12 -3 61 106 214
476 109 265 202 481 206 481 3 0 77 -172 164 -382 87 -211 161 -386 165 -390
9 -9 376 146 374 159 -1 6 -92 227 -203 493 -110 265 -200 486 -200 490 0 4
38 20 85 34 113 35 261 112 360 186 l80 60 25 -58 c14 -31 113 -258 220 -504
107 -246 200 -448 205 -448 18 0 365 154 365 163 0 5 -175 409 -389 898 l-390
889 435 996 c240 548 434 997 432 999 -6 6 -1309 555 -1318 555 -4 0 -10 -6
-13 -12z m496 -634 c139 -58 262 -111 274 -118 22 -11 19 -17 -153 -411 -97
-220 -179 -408 -183 -418 -6 -15 -17 -9 -86 43 -91 69 -266 158 -372 190 -40
12 -73 25 -73 28 -1 18 324 792 332 792 5 0 122 -48 261 -106z m-787 -1075
c109 -15 215 -51 311 -105 85 -49 223 -166 223 -190 0 -8 -49 -128 -110 -266
-60 -139 -110 -260 -110 -268 0 -9 50 -129 110 -267 61 -138 110 -258 110
-266 0 -25 -133 -138 -223 -190 -316 -183 -690 -143 -978 105 -92 79 -91 71
-13 252 l67 156 254 0 253 0 0 210 0 210 -254 0 -253 0 -68 155 c-79 180 -79
174 15 254 141 121 287 189 454 211 90 11 126 11 212 -1z m-883 -1803 c111
-90 274 -176 408 -216 38 -12 69 -24 69 -27 0 -20 -326 -793 -335 -793 -20 1
-550 229 -550 238 0 11 358 832 363 832 2 0 22 -15 45 -34z"/>
<path d="M4069 3280 c-240 -31 -450 -184 -563 -408 -93 -184 -89 -455 9 -641
200 -381 667 -510 1031 -285 81 50 194 164 242 246 77 130 113 304 94 453 -22
166 -80 289 -196 412 -115 122 -264 199 -430 222 -84 12 -103 12 -187 1z m203
-426 c64 -21 140 -91 175 -162 40 -81 40 -183 0 -264 -117 -239 -449 -242
-567 -6 -26 52 -30 72 -30 138 0 66 4 86 30 138 75 149 225 209 392 156z"/>
</g>
</svg>
