<?xml version="1.0" standalone="no"?>
<!DOCTYPE svg PUBLIC "-//W3C//DTD SVG 20010904//EN"
 "http://www.w3.org/TR/2001/REC-SVG-20010904/DTD/svg10.dtd">
<svg version="1.0" xmlns="http://www.w3.org/2000/svg"
 width="512.000000pt" height="512.000000pt" viewBox="0 0 512.000000 512.000000"
 preserveAspectRatio="xMidYMid meet">

<g transform="translate(0.000000,512.000000) scale(0.100000,-0.100000)"
fill="#000000" stroke="none">
<path d="M78 5099 c-23 -12 -46 -35 -58 -59 -20 -39 -20 -54 -20 -2480 0
-2427 0 -2441 20 -2480 13 -26 34 -47 60 -60 39 -20 53 -20 2480 -20 2427 0
2441 0 2480 20 26 13 47 34 60 60 20 39 20 53 20 2480 0 2427 0 2441 -20 2480
-13 26 -34 47 -60 60 -39 20 -53 20 -2482 20 -2413 -1 -2443 -1 -2480 -21z
m3057 -606 c384 -89 690 -308 888 -634 127 -208 190 -439 190 -694 0 -331
-104 -618 -318 -875 l-72 -86 39 -44 c102 -114 215 -320 272 -492 69 -207 89
-385 84 -740 -3 -249 -4 -252 -72 -302 -27 -20 -40 -21 -381 -21 -341 0 -354
1 -381 21 -15 11 -37 33 -48 48 -20 26 -21 45 -27 324 -5 269 -7 303 -27 362
-65 195 -216 346 -417 417 l-80 28 -487 3 -487 3 -3 -555 c-3 -542 -3 -555
-24 -582 -11 -15 -33 -37 -48 -48 -27 -20 -40 -21 -381 -21 -341 0 -354 1
-381 21 -15 11 -37 33 -48 48 l-21 27 -3 1822 c-2 1002 0 1841 3 1864 7 49 45
99 90 119 25 11 209 13 1040 11 983 -3 1012 -4 1100 -24z"/>
<path d="M1200 2560 l0 -1660 155 0 155 0 0 554 0 553 23 34 c47 71 28 69 648
69 448 0 573 -3 642 -15 362 -63 651 -324 758 -686 19 -63 23 -105 26 -291 l5
-218 155 0 156 0 -6 207 c-6 228 -21 331 -65 463 -62 182 -147 320 -291 474
-152 162 -151 184 23 359 77 77 139 150 169 197 292 473 180 1075 -262 1411
-90 68 -246 143 -366 176 l-100 28 -912 3 -913 3 0 -1661z m1860 1331 c136
-41 225 -95 330 -201 78 -77 104 -111 138 -180 111 -224 111 -466 0 -690 -34
-69 -60 -103 -138 -180 -105 -106 -194 -160 -330 -201 -74 -23 -82 -23 -747
-27 -653 -3 -674 -2 -718 17 -27 12 -52 33 -65 53 -19 32 -20 48 -20 683 0
634 1 651 20 683 12 19 39 42 63 53 41 18 66 19 717 16 669 -3 676 -3 750 -26z"/>
<path d="M1810 3165 l0 -455 543 0 c584 0 614 3 715 54 276 140 326 524 96
736 -53 49 -148 96 -223 110 -32 6 -268 10 -592 10 l-539 0 0 -455z"/>
</g>
</svg>
